/Volumes/Media/Jellyfin/Recordings/Movies/SEAL Team/Season 1/SEAL Team S01E18 Credible Threat.ts
ffmpeg version 5.1.2 Copyright (c) 2000-2022 the FFmpeg developers
  built with Apple clang version 14.0.0 (clang-1400.0.29.102)
  configuration: --prefix=/usr/local/Cellar/ffmpeg/5.1.2 --enable-shared --enable-pthreads --enable-version3 --cc=clang --host-cflags= --host-ldflags= --enable-ffplay --enable-gnutls --enable-gpl --enable-libaom --enable-libbluray --enable-libdav1d --enable-libmp3lame --enable-libopus --enable-librav1e --enable-librist --enable-librubberband --enable-libsnappy --enable-libsrt --enable-libtesseract --enable-libtheora --enable-libvidstab --enable-libvmaf --enable-libvorbis --enable-libvpx --enable-libwebp --enable-libx264 --enable-libx265 --enable-libxml2 --enable-libxvid --enable-lzma --enable-libfontconfig --enable-libfreetype --enable-frei0r --enable-libass --enable-libopencore-amrnb --enable-libopencore-amrwb --enable-libopenjpeg --enable-libspeex --enable-libsoxr --enable-libzmq --enable-libzimg --disable-libjack --disable-indev=jack --enable-videotoolbox
  libavutil      57. 28.100 / 57. 28.100
  libavcodec     59. 37.100 / 59. 37.100
  libavformat    59. 27.100 / 59. 27.100
  libavdevice    59.  7.100 / 59.  7.100
  libavfilter     8. 44.100 /  8. 44.100
  libswscale      6.  7.100 /  6.  7.100
  libswresample   4.  7.100 /  4.  7.100
  libpostproc    56.  6.100 / 56.  6.100
[mpeg2video @ 0x7fd94d706480] Invalid frame dimensions 0x0.
    Last message repeated 34 times
[mpegts @ 0x7fd94d705400] PES packet size mismatch
[mpegts @ 0x7fd94d705400] Packet corrupt (stream = 1, dts = 7958359335).
[mpegts @ 0x7fd94d705400] PES packet size mismatch
[mpegts @ 0x7fd94d705400] Packet corrupt (stream = 2, dts = 7958359335).
Input #0, mpegts, from '/Volumes/Media/Jellyfin/Recordings/Movies/SEAL Team/Season 1/SEAL Team S01E18 Credible Threat.ts':
  Duration: 01:00:00.02, start: 84827.014833, bitrate: 10757 kb/s
  Program 1 
  Stream #0:0[0x31]: Video: mpeg2video (Main) ([2][0][0][0] / 0x0002), yuv420p(tv, top first), 1920x1080 [SAR 1:1 DAR 16:9], Closed Captions, 29.97 fps, 29.97 tbr, 90k tbn
    Side data:
      cpb: bitrate max/min/avg: 12704400/0/0 buffer size: 7995392 vbv_delay: N/A
  Stream #0:1[0x34](eng): Audio: ac3 ([129][0][0][0] / 0x0081), 48000 Hz, 5.1(side), fltp, 384 kb/s
  Stream #0:2[0x35](spa): Audio: ac3 ([129][0][0][0] / 0x0081), 48000 Hz, stereo, fltp, 192 kb/s
Stream mapping:
  Stream #0:0 -> #0:0 (mpeg2video (native) -> h264 (h264_videotoolbox))
  Stream #0:1 -> #0:1 (copy)
Press [q] to stop, [?] for help
[mp4 @ 0x7fd94e205d80] track 1: codec frame size is not set
Output #0, mp4, to '/Volumes/Media/Jellyfin/Recordings/Movies/SEAL Team/Season 1/SEAL Team S01E18 Credible Threat.mp4':
  Metadata:
    encoder         : Lavf59.27.100
  Stream #0:0: Video: h264 (avc1 / 0x31637661), yuv420p(tv, top coded first (swapped)), 1920x1080 [SAR 1:1 DAR 16:9], q=2-31, 3000 kb/s, 29.97 fps, 30k tbn
    Metadata:
      encoder         : Lavc59.37.100 h264_videotoolbox
  Stream #0:1(eng): Audio: ac3 (ac-3 / 0x332D6361), 48000 Hz, 5.1(side), fltp, 384 kb/s
frame=   49 fps=0.0 q=-0.0 size=     256kB time=00:00:01.40 bitrate=1496.7kbits/s dup=48 drop=0 speed= 133x    frame=   61 fps=0.0 q=-0.0 size=     512kB time=00:00:01.80 bitrate=2328.0kbits/s dup=48 drop=0 speed=3.52x    frame=  164 fps=162 q=-0.0 size=    2304kB time=00:00:05.23 bitrate=3603.0kbits/s dup=48 drop=0 speed=5.17x    frame=  268 fps=177 q=-0.0 size=    3840kB time=00:00:08.70 bitrate=3612.2kbits/s dup=48 drop=0 speed=5.75x    frame=  375 fps=186 q=-0.0 size=    5376kB time=00:00:12.27 bitrate=3586.7kbits/s dup=48 drop=0 speed=6.08x    frame=  479 fps=190 q=-0.0 size=    6656kB time=00:00:15.74 bitrate=3462.2kbits/s dup=48 drop=0 speed=6.25x    frame=  584 fps=193 q=-0.0 size=    7936kB time=00:00:19.25 bitrate=3376.8kbits/s dup=48 drop=0 speed=6.37x    frame=  690 fps=196 q=-0.0 size=    9472kB time=00:00:22.78 bitrate=3404.9kbits/s dup=48 drop=0 speed=6.47x    frame=  799 fps=199 q=-0.0 size=   11008kB time=00:00:26.42 bitrate=3412.4kbits/s dup=48 drop=0 speed=6.57x    frame=  907 fps=200 q=-0.0 size=   12288kB time=00:00:30.03 bitrate=3352.1kbits/s dup=48 drop=0 speed=6.64x    frame= 1014 fps=202 q=-0.0 size=   13824kB time=00:00:33.60 bitrate=3370.4kbits/s dup=48 drop=0 speed=6.68x    frame= 1123 fps=203 q=-0.0 size=   15360kB time=00:00:37.23 bitrate=3379.1kbits/s dup=48 drop=0 speed=6.73x    frame= 1230 fps=204 q=-0.0 size=   16896kB time=00:00:40.80 bitrate=3391.8kbits/s dup=48 drop=0 speed=6.77x    frame= 1339 fps=205 q=-0.0 size=   18432kB time=00:00:44.44 bitrate=3397.4kbits/s dup=48 drop=0 speed= 6.8x    frame= 1447 fps=206 q=-0.0 size=   19968kB time=00:00:48.04 bitrate=3404.5kbits/s dup=48 drop=0 speed=6.83x    frame= 1555 fps=206 q=-0.0 size=   21248kB time=00:00:51.65 bitrate=3370.0kbits/s dup=48 drop=0 speed=6.85x    frame= 1663 fps=207 q=-0.0 size=   22784kB time=00:00:55.25 bitrate=3377.9kbits/s dup=48 drop=0 speed=6.87x    frame= 1770 fps=207 q=-0.0 size=   24576kB time=00:00:58.82 bitrate=3422.4kbits/s dup=48 drop=0 speed=6.88x    frame= 1877 fps=207 q=-0.0 size=   26112kB time=00:01:02.39 bitrate=3428.3kbits/s dup=48 drop=0 speed= 6.9x    frame= 1976 fps=207 q=-0.0 size=   27392kB time=00:01:05.69 bitrate=3415.5kbits/s dup=48 drop=0 speed=6.88x    frame= 2078 fps=207 q=-0.0 size=   28672kB time=00:01:09.10 bitrate=3399.0kbits/s dup=48 drop=0 speed=6.88x    frame= 2183 fps=207 q=-0.0 size=   30208kB time=00:01:12.60 bitrate=3408.3kbits/s dup=48 drop=0 speed=6.88x    frame= 2291 fps=207 q=-0.0 size=   31488kB time=00:01:16.20 bitrate=3384.8kbits/s dup=48 drop=0 speed= 6.9x    frame= 2398 fps=208 q=-0.0 size=   33024kB time=00:01:19.77 bitrate=3391.0kbits/s dup=48 drop=0 speed= 6.9x    frame= 2504 fps=208 q=-0.0 size=   34560kB time=00:01:23.31 bitrate=3398.1kbits/s dup=48 drop=0 speed=6.91x    frame= 2609 fps=208 q=-0.0 size=   35840kB time=00:01:26.82 bitrate=3381.7kbits/s dup=48 drop=0 speed=6.91x    frame= 2708 fps=207 q=-0.0 size=   37376kB time=00:01:30.12 bitrate=3397.4kbits/s dup=48 drop=0 speed= 6.9x    frame= 2816 fps=208 q=-0.0 size=   38656kB time=00:01:33.72 bitrate=3378.6kbits/s dup=48 drop=0 speed=6.91x    frame= 2922 fps=208 q=-0.0 size=   40192kB time=00:01:37.26 bitrate=3385.2kbits/s dup=48 drop=0 speed=6.91x    frame= 3030 fps=208 q=-0.0 size=   41728kB time=00:01:40.86 bitrate=3389.0kbits/s dup=48 drop=0 speed=6.92x    frame= 3130 fps=208 q=-0.0 size=   43264kB time=00:01:44.20 bitrate=3401.2kbits/s dup=48 drop=0 speed=6.91x    frame= 3232 fps=207 q=-0.0 size=   44800kB time=00:01:47.60 bitrate=3410.6kbits/s dup=48 drop=0 speed=6.91x    frame= 3338 fps=208 q=-0.0 size=   46336kB time=00:01:51.14 bitrate=3415.2kbits/s dup=48 drop=0 speed=6.91x    frame= 3441 fps=207 q=-0.0 size=   47360kB time=00:01:54.58 bitrate=3386.0kbits/s dup=48 drop=0 speed=6.91x    frame= 3550 fps=208 q=-0.0 size=   48896kB time=00:01:58.21 bitrate=3388.3kbits/s dup=48 drop=0 speed=6.92x    frame= 3658 fps=208 q=-0.0 size=   50432kB time=00:02:01.82 bitrate=3391.3kbits/s dup=48 drop=0 speed=6.93x    frame= 3766 fps=208 q=-0.0 size=   51968kB time=00:02:05.42 bitrate=3394.2kbits/s dup=48 drop=0 speed=6.93x    frame= 3875 fps=208 q=-0.0 size=   53504kB time=00:02:09.06 bitrate=3396.1kbits/s dup=48 drop=0 speed=6.94x    frame= 3983 fps=209 q=-0.0 size=   55040kB time=00:02:12.66 bitrate=3398.7kbits/s dup=48 drop=0 speed=6.95x    frame= 4092 fps=209 q=-0.0 size=   56320kB time=00:02:16.30 bitrate=3384.9kbits/s dup=48 drop=0 speed=6.95x    frame= 4198 fps=209 q=-0.0 size=   57856kB time=00:02:19.83 bitrate=3389.3kbits/s dup=48 drop=0 speed=6.96x    frame= 4308 fps=209 q=-0.0 size=   59392kB time=00:02:23.51 bitrate=3390.3kbits/s dup=48 drop=0 speed=6.96x    frame= 4415 fps=209 q=-0.0 size=   60928kB time=00:02:27.08 bitrate=3393.5kbits/s dup=48 drop=0 speed=6.97x    frame= 4520 fps=209 q=-0.0 size=   62464kB time=00:02:30.58 bitrate=3398.1kbits/s dup=48 drop=0 speed=6.97x    frame= 4625 fps=209 q=-0.0 size=   64000kB time=00:02:34.08 bitrate=3402.5kbits/s dup=48 drop=0 speed=6.97x    frame= 4730 fps=209 q=-0.0 size=   65536kB time=00:02:37.59 bitrate=3406.7kbits/s dup=48 drop=0 speed=6.97x    frame= 4832 fps=209 q=-0.0 size=   66816kB time=00:02:40.99 bitrate=3399.9kbits/s dup=48 drop=0 speed=6.96x    frame= 4939 fps=209 q=-0.0 size=   68352kB time=00:02:44.56 bitrate=3402.6kbits/s dup=48 drop=0 speed=6.97x    frame= 5046 fps=209 q=-0.0 size=   69888kB time=00:02:48.13 bitrate=3405.1kbits/s dup=48 drop=0 speed=6.97x    frame= 5152 fps=209 q=-0.0 size=   71168kB time=00:02:51.67 bitrate=3396.1kbits/s dup=48 drop=0 speed=6.97x    frame= 5260 fps=209 q=-0.0 size=   72704kB time=00:02:55.27 bitrate=3398.0kbits/s dup=48 drop=0 speed=6.98x    frame= 5367 fps=209 q=-0.0 size=   74240kB time=00:02:58.84 bitrate=3400.6kbits/s dup=48 drop=0 speed=6.98x    frame= 5472 fps=209 q=-0.0 size=   76032kB time=00:03:02.34 bitrate=3415.7kbits/s dup=48 drop=0 speed=6.98x    frame= 5578 fps=209 q=-0.0 size=   77312kB time=00:03:05.88 bitrate=3407.1kbits/s dup=48 drop=0 speed=6.98x    frame= 5685 fps=210 q=-0.0 size=   78592kB time=00:03:09.45 bitrate=3398.3kbits/s dup=48 drop=0 speed=6.98x    frame= 5792 fps=210 q=-0.0 size=   80128kB time=00:03:13.02 bitrate=3400.6kbits/s dup=48 drop=0 speed=6.99x    frame= 5898 fps=210 q=-0.0 size=   81664kB time=00:03:16.56 bitrate=3403.4kbits/s dup=48 drop=0 speed=6.99x    frame= 6006 fps=210 q=-0.0 size=   82944kB time=00:03:20.16 bitrate=3394.6kbits/s dup=48 drop=0 speed=6.99x    frame= 6113 fps=210 q=-0.0 size=   84480kB time=00:03:23.73 bitrate=3396.8kbits/s dup=48 drop=0 speed=6.99x    frame= 6220 fps=210 q=-0.0 size=   86016kB time=00:03:27.30 bitrate=3399.0kbits/s dup=48 drop=0 speed=6.99x    frame= 6326 fps=210 q=-0.0 size=   87552kB time=00:03:30.84 bitrate=3401.7kbits/s dup=48 drop=0 speed=6.99x    frame= 6433 fps=210 q=-0.0 size=   89344kB time=00:03:34.41 bitrate=3413.5kbits/s dup=48 drop=0 speed=   7x    frame= 6537 fps=210 q=-0.0 size=   90624kB time=00:03:37.88 bitrate=3407.3kbits/s dup=48 drop=0 speed=6.99x    frame= 6642 fps=210 q=-0.0 size=   92160kB time=00:03:41.38 bitrate=3410.2kbits/s dup=48 drop=0 speed=6.99x    frame= 6748 fps=210 q=-0.0 size=   93440kB time=00:03:44.92 bitrate=3403.2kbits/s dup=48 drop=0 speed=   7x    frame= 6853 fps=210 q=-0.0 size=   94720kB time=00:03:48.42 bitrate=3396.9kbits/s dup=48 drop=0 speed=6.99x    frame= 6954 fps=210 q=-0.0 size=   96256kB time=00:03:51.79 bitrate=3401.8kbits/s dup=48 drop=0 speed=6.99x    frame= 7061 fps=210 q=-0.0 size=   97792kB time=00:03:55.36 bitrate=3403.7kbits/s dup=48 drop=0 speed=6.99x    frame= 7167 fps=210 q=-0.0 size=   99072kB time=00:03:58.90 bitrate=3397.2kbits/s dup=48 drop=0 speed=6.99x    frame= 7273 fps=210 q=-0.0 size=  100608kB time=00:04:02.44 bitrate=3399.5kbits/s dup=48 drop=0 speed=6.99x    frame= 7379 fps=210 q=-0.0 size=  101888kB time=00:04:05.97 bitrate=3393.2kbits/s dup=48 drop=0 speed=   7x    frame= 7486 fps=210 q=-0.0 size=  103424kB time=00:04:09.54 bitrate=3395.1kbits/s dup=48 drop=0 speed=   7x    frame= 7594 fps=210 q=-0.0 size=  104960kB time=00:04:13.15 bitrate=3396.5kbits/s dup=48 drop=0 speed=   7x    frame= 7701 fps=210 q=-0.0 size=  106752kB time=00:04:16.72 bitrate=3406.4kbits/s dup=48 drop=0 speed=   7x    frame= 7808 fps=210 q=-0.0 size=  108288kB time=00:04:20.29 bitrate=3408.1kbits/s dup=48 drop=0 speed=   7x    frame= 7916 fps=210 q=-0.0 size=  109568kB time=00:04:23.89 bitrate=3401.3kbits/s dup=48 drop=0 speed=   7x    frame= 8024 fps=210 q=-0.0 size=  111104kB time=00:04:27.50 bitrate=3402.5kbits/s dup=48 drop=0 speed=7.01x    frame= 8131 fps=210 q=-0.0 size=  112640kB time=00:04:31.07 bitrate=3404.1kbits/s dup=48 drop=0 speed=7.01x    frame= 8238 fps=210 q=-0.0 size=  114432kB time=00:04:34.64 bitrate=3413.3kbits/s dup=48 drop=0 speed=7.01x    frame= 8334 fps=210 q=-0.0 size=  115712kB time=00:04:37.84 bitrate=3411.7kbits/s dup=48 drop=0 speed=   7x    frame= 8437 fps=210 q=-0.0 size=  116992kB time=00:04:41.28 bitrate=3407.3kbits/s dup=48 drop=0 speed=   7x    frame= 8544 fps=210 q=-0.0 size=  118272kB time=00:04:44.85 bitrate=3401.4kbits/s dup=48 drop=0 speed=   7x    frame= 8651 fps=210 q=-0.0 size=  119808kB time=00:04:48.42 bitrate=3402.9kbits/s dup=48 drop=0 speed=   7x    frame= 8756 fps=210 q=-0.0 size=  121088kB time=00:04:51.92 bitrate=3398.0kbits/s dup=48 drop=0 speed=   7x    frame= 8862 fps=210 q=-0.0 size=  122624kB time=00:04:55.46 bitrate=3399.9kbits/s dup=48 drop=0 speed=   7x    frame= 8967 fps=210 q=-0.0 size=  124416kB time=00:04:58.96 bitrate=3409.1kbits/s dup=48 drop=0 speed=   7x    frame= 9070 fps=210 q=-0.0 size=  125696kB time=00:05:02.40 bitrate=3405.1kbits/s dup=48 drop=0 speed=   7x    frame= 9177 fps=210 q=-0.0 size=  126976kB time=00:05:05.97 bitrate=3399.6kbits/s dup=48 drop=0 speed=   7x    frame= 9284 fps=210 q=-0.0 size=  128768kB time=00:05:09.54 bitrate=3407.8kbits/s dup=48 drop=0 speed=   7x    frame= 9391 fps=210 q=-0.0 size=  130048kB time=00:05:13.11 bitrate=3402.5kbits/s dup=48 drop=0 speed=   7x    frame= 9498 fps=210 q=-0.0 size=  131328kB time=00:05:16.68 bitrate=3397.2kbits/s dup=48 drop=0 speed=7.01x    frame= 9607 fps=210 q=-0.0 size=  132864kB time=00:05:20.32 bitrate=3397.9kbits/s dup=48 drop=0 speed=7.01x    frame= 9715 fps=210 q=-0.0 size=  134400kB time=00:05:23.92 bitrate=3399.0kbits/s dup=48 drop=0 speed=7.01x    frame= 9821 fps=210 q=-0.0 size=  135936kB time=00:05:27.46 bitrate=3400.7kbits/s dup=48 drop=0 speed=7.01x    frame= 9930 fps=210 q=-0.0 size=  137472kB time=00:05:31.09 bitrate=3401.3kbits/s dup=48 drop=0 speed=7.01x    frame=10036 fps=210 q=-0.0 size=  138752kB time=00:05:34.63 bitrate=3396.7kbits/s dup=48 drop=0 speed=7.01x    frame=10144 fps=210 q=-0.0 size=  140288kB time=00:05:38.23 bitrate=3397.7kbits/s dup=48 drop=0 speed=7.01x    frame=10248 fps=210 q=-0.0 size=  141824kB time=00:05:41.70 bitrate=3400.0kbits/s dup=48 drop=0 speed=7.01x    frame=10356 fps=210 q=-0.0 size=  143104kB time=00:05:45.31 bitrate=3394.9kbits/s dup=48 drop=0 speed=7.01x    frame=10463 fps=210 q=-0.0 size=  144896kB time=00:05:48.88 bitrate=3402.3kbits/s dup=48 drop=0 speed=7.02x    frame=10570 fps=210 q=-0.0 size=  146176kB time=00:05:52.45 bitrate=3397.6kbits/s dup=48 drop=0 speed=7.02x    frame=10678 fps=210 q=-0.0 size=  147712kB time=00:05:56.05 bitrate=3398.5kbits/s dup=48 drop=0 speed=7.02x    frame=10786 fps=211 q=-0.0 size=  149248kB time=00:05:59.65 bitrate=3399.4kbits/s dup=48 drop=0 speed=7.02x    frame=10893 fps=211 q=-0.0 size=  150784kB time=00:06:03.22 bitrate=3400.7kbits/s dup=48 drop=0 speed=7.02x    frame=11000 fps=211 q=-0.0 size=  152576kB time=00:06:06.79 bitrate=3407.6kbits/s dup=48 drop=0 speed=7.02x    frame=11103 fps=211 q=-0.0 size=  154112kB time=00:06:10.23 bitrate=3409.9kbits/s dup=48 drop=0 speed=7.02x    frame=11206 fps=210 q=-0.0 size=  155392kB time=00:06:13.67 bitrate=3406.6kbits/s dup=48 drop=0 speed=7.02x    frame=11312 fps=210 q=-0.0 size=  156672kB time=00:06:17.21 bitrate=3402.5kbits/s dup=48 drop=0 speed=7.02x    frame=11420 fps=211 q=-0.0 size=  158208kB time=00:06:20.81 bitrate=3403.3kbits/s dup=48 drop=0 speed=7.02x    frame=11525 fps=210 q=-0.0 size=  159488kB time=00:06:24.31 bitrate=3399.6kbits/s dup=48 drop=0 speed=7.02x    frame=11633 fps=211 q=-0.0 size=  161024kB time=00:06:27.92 bitrate=3400.5kbits/s dup=48 drop=0 speed=7.02x    frame=11738 fps=211 q=-0.0 size=  162560kB time=00:06:31.42 bitrate=3402.2kbits/s dup=48 drop=0 speed=7.02x    frame=11846 fps=211 q=-0.0 size=  164096kB time=00:06:35.02 bitrate=3403.0kbits/s dup=48 drop=0 speed=7.02x    frame=11951 fps=211 q=-0.0 size=  165376kB time=00:06:38.53 bitrate=3399.4kbits/s dup=48 drop=0 speed=7.02x    frame=12058 fps=211 q=-0.0 size=  167168kB time=00:06:42.10 bitrate=3405.7kbits/s dup=48 drop=0 speed=7.02x    frame=12165 fps=211 q=-0.0 size=  168448kB time=00:06:45.67 bitrate=3401.6kbits/s dup=48 drop=0 speed=7.02x    frame=12266 fps=210 q=-0.0 size=  169728kB time=00:06:49.04 bitrate=3399.2kbits/s dup=48 drop=0 speed=7.02x    frame=12373 fps=211 q=-0.0 size=  171520kB time=00:06:52.61 bitrate=3405.4kbits/s dup=48 drop=0 speed=7.02x    frame=12480 fps=211 q=-0.0 size=  173056kB time=00:06:56.18 bitrate=3406.4kbits/s dup=48 drop=0 speed=7.02x    frame=12587 fps=211 q=-0.0 size=  174336kB time=00:06:59.75 bitrate=3402.4kbits/s dup=48 drop=0 speed=7.02x    frame=12694 fps=211 q=-0.0 size=  175872kB time=00:07:03.32 bitrate=3403.4kbits/s dup=48 drop=0 speed=7.02x    frame=12801 fps=211 q=-0.0 size=  177152kB time=00:07:06.89 bitrate=3399.5kbits/s dup=48 drop=0 speed=7.02x    frame=12911 fps=211 q=-0.0 size=  178688kB time=00:07:10.56 bitrate=3399.8kbits/s dup=48 drop=0 speed=7.03x    frame=13019 fps=211 q=-0.0 size=  180224kB time=00:07:14.16 bitrate=3400.5kbits/s dup=48 drop=0 speed=7.03x    frame=13127 fps=211 q=-0.0 size=  181760kB time=00:07:17.77 bitrate=3401.3kbits/s dup=48 drop=0 speed=7.03x    frame=13230 fps=211 q=-0.0 size=  183296kB time=00:07:21.20 bitrate=3403.3kbits/s dup=48 drop=0 speed=7.03x    frame=13334 fps=211 q=-0.0 size=  184576kB time=00:07:24.67 bitrate=3400.3kbits/s dup=48 drop=0 speed=7.03x    frame=13442 fps=211 q=-0.0 size=  186112kB time=00:07:28.28 bitrate=3401.1kbits/s dup=48 drop=0 speed=7.03x    frame=13549 fps=211 q=-0.0 size=  187392kB time=00:07:31.85 bitrate=3397.4kbits/s dup=48 drop=0 speed=7.03x    frame=13658 fps=211 q=-0.0 size=  189184kB time=00:07:35.48 bitrate=3402.5kbits/s dup=48 drop=0 speed=7.03x    frame=13766 fps=211 q=-0.0 size=  190464kB time=00:07:39.09 bitrate=3398.6kbits/s dup=48 drop=0 speed=7.03x    frame=13873 fps=211 q=-0.0 size=  192000kB time=00:07:42.66 bitrate=3399.6kbits/s dup=48 drop=0 speed=7.03x    frame=13982 fps=211 q=-0.0 size=  193536kB time=00:07:46.29 bitrate=3400.1kbits/s dup=48 drop=0 speed=7.03x    frame=14090 fps=211 q=-0.0 size=  195328kB time=00:07:49.90 bitrate=3405.2kbits/s dup=48 drop=0 speed=7.03x    frame=14196 fps=211 q=-0.0 size=  196864kB time=00:07:53.43 bitrate=3406.4kbits/s dup=48 drop=0 speed=7.03x    frame=14303 fps=211 q=-0.0 size=  198656kB time=00:07:57.00 bitrate=3411.6kbits/s dup=48 drop=0 speed=7.03x    frame=14409 fps=211 q=-0.0 size=  199936kB time=00:08:00.54 bitrate=3408.4kbits/s dup=48 drop=0 speed=7.03x    frame=14516 fps=211 q=-0.0 size=  200960kB time=00:08:04.11 bitrate=3400.6kbits/s dup=48 drop=0 speed=7.03x    frame=14623 fps=211 q=-0.0 size=  202496kB time=00:08:07.68 bitrate=3401.5kbits/s dup=48 drop=0 speed=7.04x    frame=14716 fps=211 q=-0.0 size=  203776kB time=00:08:10.79 bitrate=3401.3kbits/s dup=48 drop=0 speed=7.03x    frame=14822 fps=211 q=-0.0 size=  205312kB time=00:08:14.32 bitrate=3402.4kbits/s dup=48 drop=0 speed=7.03x    frame=14931 fps=211 q=-0.0 size=  207104kB time=00:08:17.96 bitrate=3407.1kbits/s dup=48 drop=0 speed=7.03x    frame=15035 fps=211 q=-0.0 size=  208640kB time=00:08:21.43 bitrate=3408.6kbits/s dup=48 drop=0 speed=7.03x    frame=15138 fps=211 q=-0.0 size=  209920kB time=00:08:24.87 bitrate=3406.1kbits/s dup=48 drop=0 speed=7.03x    frame=15237 fps=211 q=-0.0 size=  211200kB time=00:08:28.17 bitrate=3404.6kbits/s dup=48 drop=0 speed=7.03x    frame=15339 fps=211 q=-0.0 size=  212480kB time=00:08:31.57 bitrate=3402.5kbits/s dup=48 drop=0 speed=7.02x    frame=15439 fps=211 q=-0.0 size=  213760kB time=00:08:34.91 bitrate=3400.8kbits/s dup=48 drop=0 speed=7.02x    frame=15547 fps=211 q=-0.0 size=  215552kB time=00:08:38.51 bitrate=3405.5kbits/s dup=48 drop=0 speed=7.02x    frame=15653 fps=211 q=-0.0 size=  217344kB time=00:08:42.05 bitrate=3410.5kbits/s dup=48 drop=0 speed=7.02x    frame=15762 fps=211 q=-0.0 size=  218624kB time=00:08:45.69 bitrate=3406.9kbits/s dup=48 drop=0 speed=7.02x    frame=15870 fps=211 q=-0.0 size=  219904kB time=00:08:49.29 bitrate=3403.5kbits/s dup=48 drop=0 speed=7.03x    frame=15979 fps=211 q=-0.0 size=  221184kB time=00:08:52.93 bitrate=3399.9kbits/s dup=48 drop=0 speed=7.03x    frame=16088 fps=211 q=-0.0 size=  222720kB time=00:08:56.56 bitrate=3400.3kbits/s dup=48 drop=0 speed=7.03x    frame=16197 fps=211 q=-0.0 size=  224256kB time=00:09:00.20 bitrate=3400.7kbits/s dup=48 drop=0 speed=7.03x    frame=16303 fps=211 q=-0.0 size=  225792kB time=00:09:03.74 bitrate=3401.8kbits/s dup=48 drop=0 speed=7.03x    frame=16412 fps=211 q=-0.0 size=  227328kB time=00:09:07.38 bitrate=3402.2kbits/s dup=48 drop=0 speed=7.03x    frame=16520 fps=211 q=-0.0 size=  228864kB time=00:09:10.98 bitrate=3402.7kbits/s dup=48 drop=0 speed=7.03x    frame=16623 fps=211 q=-0.0 size=  230144kB time=00:09:14.42 bitrate=3400.6kbits/s dup=48 drop=0 speed=7.03x    frame=16731 fps=211 q=-0.0 size=  231936kB time=00:09:18.02 bitrate=3404.9kbits/s dup=48 drop=0 speed=7.03x    frame=16837 fps=211 q=-0.0 size=  233216kB time=00:09:21.56 bitrate=3402.1kbits/s dup=48 drop=0 speed=7.03x    frame=16945 fps=211 q=-0.0 size=  235008kB time=00:09:25.16 bitrate=3406.4kbits/s dup=48 drop=0 speed=7.03x    frame=17053 fps=211 q=-0.0 size=  236032kB time=00:09:28.76 bitrate=3399.6kbits/s dup=48 drop=0 speed=7.03x    frame=17160 fps=211 q=-0.0 size=  237568kB time=00:09:32.33 bitrate=3400.4kbits/s dup=48 drop=0 speed=7.03x    frame=17268 fps=211 q=-0.0 size=  239104kB time=00:09:35.94 bitrate=3400.9kbits/s dup=48 drop=0 speed=7.03x    frame=17375 fps=211 q=-0.0 size=  240640kB time=00:09:39.51 bitrate=3401.7kbits/s dup=48 drop=0 speed=7.04x    frame=17478 fps=211 q=-0.0 size=  241920kB time=00:09:42.94 bitrate=3399.6kbits/s dup=48 drop=0 speed=7.03x    frame=17584 fps=211 q=-0.0 size=  243456kB time=00:09:46.48 bitrate=3400.6kbits/s dup=48 drop=0 speed=7.03x    frame=17692 fps=211 q=-0.0 size=  244992kB time=00:09:50.08 bitrate=3401.1kbits/s dup=48 drop=0 speed=7.03x    frame=17799 fps=211 q=-0.0 size=  246528kB time=00:09:53.65 bitrate=3401.9kbits/s dup=48 drop=0 speed=7.04x    frame=17903 fps=211 q=-0.0 size=  247808kB time=00:09:57.12 bitrate=3399.7kbits/s dup=48 drop=0 speed=7.03x    frame=18008 fps=211 q=-0.0 size=  249088kB time=00:10:00.63 bitrate=3397.3kbits/s dup=48 drop=0 speed=7.03x    frame=18115 fps=211 q=-0.0 size=  250880kB time=00:10:04.20 bitrate=3401.5kbits/s dup=48 drop=0 speed=7.03x    frame=18223 fps=211 q=-0.0 size=  252160kB time=00:10:07.80 bitrate=3398.6kbits/s dup=48 drop=0 speed=7.04x    frame=18332 fps=211 q=-0.0 size=  253696kB time=00:10:11.44 bitrate=3399.0kbits/s dup=48 drop=0 speed=7.04x    frame=18441 fps=211 q=-0.0 size=  254976kB time=00:10:15.08 bitrate=3395.9kbits/s dup=48 drop=0 speed=7.04x    frame=18549 fps=211 q=-0.0 size=  256512kB time=00:10:18.68 bitrate=3396.5kbits/s dup=48 drop=0 speed=7.04x    frame=18657 fps=211 q=-0.0 size=  258048kB time=00:10:22.28 bitrate=3397.0kbits/s dup=48 drop=0 speed=7.04x    frame=18767 fps=211 q=-0.0 size=  259584kB time=00:10:25.95 bitrate=3397.2kbits/s dup=48 drop=0 speed=7.04x    frame=18873 fps=211 q=-0.0 size=  260864kB time=00:10:29.49 bitrate=3394.8kbits/s dup=48 drop=0 speed=7.04x    frame=18982 fps=211 q=-0.0 size=  262656kB time=00:10:33.13 bitrate=3398.5kbits/s dup=48 drop=0 speed=7.04x    frame=19088 fps=211 q=-0.0 size=  264448kB time=00:10:36.66 bitrate=3402.6kbits/s dup=48 drop=0 speed=7.04x    frame=19196 fps=211 q=-0.0 size=  265984kB time=00:10:40.27 bitrate=3403.1kbits/s dup=48 drop=0 speed=7.04x    frame=19302 fps=211 q=-0.0 size=  267776kB time=00:10:43.80 bitrate=3407.3kbits/s dup=48 drop=0 speed=7.04x    frame=19412 fps=211 q=-0.0 size=  268800kB time=00:10:47.48 bitrate=3400.9kbits/s dup=48 drop=0 speed=7.04x    frame=19520 fps=211 q=-0.0 size=  270080kB time=00:10:51.08 bitrate=3398.2kbits/s dup=48 drop=0 speed=7.04x    frame=19624 fps=211 q=-0.0 size=  271360kB time=00:10:54.55 bitrate=3396.2kbits/s dup=48 drop=0 speed=7.04x    frame=19731 fps=211 q=-0.0 size=  273152kB time=00:10:58.12 bitrate=3400.1kbits/s dup=48 drop=0 speed=7.04x    frame=19838 fps=211 q=-0.0 size=  274944kB time=00:11:01.69 bitrate=3403.9kbits/s dup=48 drop=0 speed=7.04x    frame=19946 fps=211 q=-0.0 size=  276224kB time=00:11:05.29 bitrate=3401.2kbits/s dup=48 drop=0 speed=7.05x    frame=20054 fps=211 q=-0.0 size=  277760kB time=00:11:08.90 bitrate=3401.7kbits/s dup=48 drop=0 speed=7.05x    frame=20162 fps=211 q=-0.0 size=  279040kB time=00:11:12.50 bitrate=3399.1kbits/s dup=48 drop=0 speed=7.05x    frame=20270 fps=211 q=-0.0 size=  280832kB time=00:11:16.10 bitrate=3402.7kbits/s dup=48 drop=0 speed=7.05x    frame=20380 fps=211 q=-0.0 size=  281856kB time=00:11:19.77 bitrate=3396.6kbits/s dup=48 drop=0 speed=7.05x    frame=20490 fps=211 q=-0.0 size=  283392kB time=00:11:23.44 bitrate=3396.8kbits/s dup=48 drop=0 speed=7.05x    frame=20598 fps=211 q=-0.0 size=  284928kB time=00:11:27.05 bitrate=3397.3kbits/s dup=48 drop=0 speed=7.05x    frame=20708 fps=211 q=-0.0 size=  286208kB time=00:11:30.72 bitrate=3394.4kbits/s dup=48 drop=0 speed=7.05x    frame=20817 fps=211 q=-0.0 size=  287744kB time=00:11:34.36 bitrate=3394.8kbits/s dup=48 drop=0 speed=7.05x    frame=20924 fps=211 q=-0.0 size=  289536kB time=00:11:37.93 bitrate=3398.4kbits/s dup=48 drop=0 speed=7.05x    frame=21030 fps=211 q=-0.0 size=  291584kB time=00:11:41.46 bitrate=3405.2kbits/s dup=48 drop=0 speed=7.05x    frame=21124 fps=211 q=-0.0 size=  293120kB time=00:11:44.60 bitrate=3407.9kbits/s dup=48 drop=0 speed=7.05x    frame=21226 fps=211 q=-0.0 size=  294656kB time=00:11:48.00 bitrate=3409.3kbits/s dup=48 drop=0 speed=7.05x    frame=21333 fps=211 q=-0.0 size=  296448kB time=00:11:51.57 bitrate=3412.8kbits/s dup=48 drop=0 speed=7.05x    frame=21439 fps=211 q=-0.0 size=  297728kB time=00:11:55.11 bitrate=3410.6kbits/s dup=48 drop=0 speed=7.05x    frame=21544 fps=211 q=-0.0 size=  299008kB time=00:11:58.61 bitrate=3408.6kbits/s dup=48 drop=0 speed=7.05x    frame=21649 fps=211 q=-0.0 size=  300800kB time=00:12:02.12 bitrate=3412.4kbits/s dup=48 drop=0 speed=7.05x    frame=21752 fps=211 q=-0.0 size=  302080kB time=00:12:05.55 bitrate=3410.7kbits/s dup=48 drop=0 speed=7.04x    frame=21859 fps=211 q=-0.0 size=  303616kB time=00:12:09.12 bitrate=3411.2kbits/s dup=48 drop=0 speed=7.04x    frame=21966 fps=211 q=-0.0 size=  304896kB time=00:12:12.69 bitrate=3408.9kbits/s dup=48 drop=0 speed=7.05x    frame=22073 fps=211 q=-0.0 size=  306176kB time=00:12:16.26 bitrate=3406.6kbits/s dup=48 drop=0 speed=7.05x    frame=22179 fps=211 q=-0.0 size=  307968kB time=00:12:19.80 bitrate=3410.2kbits/s dup=48 drop=0 speed=7.05x    frame=22288 fps=211 q=-0.0 size=  308992kB time=00:12:23.44 bitrate=3404.8kbits/s dup=48 drop=0 speed=7.05x    frame=22394 fps=211 q=-0.0 size=  310016kB time=00:12:26.97 bitrate=3399.9kbits/s dup=48 drop=0 speed=7.05x    frame=22502 fps=211 q=-0.0 size=  311552kB time=00:12:30.58 bitrate=3400.3kbits/s dup=48 drop=0 speed=7.05x    frame=22611 fps=211 q=-0.0 size=  312832kB time=00:12:34.22 bitrate=3397.8kbits/s dup=48 drop=0 speed=7.05x    frame=22720 fps=211 q=-0.0 size=  314112kB time=00:12:37.85 bitrate=3395.4kbits/s dup=48 drop=0 speed=7.05x    frame=22832 fps=211 q=-0.0 size=  315648kB time=00:12:41.59 bitrate=3395.2kbits/s dup=48 drop=0 speed=7.05x    frame=22947 fps=211 q=-0.0 size=  316928kB time=00:12:45.43 bitrate=3391.9kbits/s dup=48 drop=0 speed=7.05x    frame=23058 fps=211 q=-0.0 size=  319232kB time=00:12:49.13 bitrate=3400.1kbits/s dup=48 drop=0 speed=7.05x    frame=23165 fps=212 q=-0.0 size=  321024kB time=00:12:52.70 bitrate=3403.4kbits/s dup=48 drop=0 speed=7.06x    frame=23271 fps=212 q=-0.0 size=  322560kB time=00:12:56.24 bitrate=3404.1kbits/s dup=48 drop=0 speed=7.06x    frame=23379 fps=212 q=-0.0 size=  324096kB time=00:12:59.84 bitrate=3404.5kbits/s dup=48 drop=0 speed=7.06x    frame=23487 fps=212 q=-0.0 size=  325632kB time=00:13:03.44 bitrate=3404.9kbits/s dup=48 drop=0 speed=7.06x    frame=23595 fps=212 q=-0.0 size=  327168kB time=00:13:07.05 bitrate=3405.3kbits/s dup=48 drop=0 speed=7.06x    frame=23701 fps=212 q=-0.0 size=  328448kB time=00:13:10.58 bitrate=3403.3kbits/s dup=48 drop=0 speed=7.06x    frame=23809 fps=212 q=-0.0 size=  329984kB time=00:13:14.19 bitrate=3403.7kbits/s dup=48 drop=0 speed=7.06x    frame=23913 fps=212 q=-0.0 size=  331264kB time=00:13:17.66 bitrate=3402.1kbits/s dup=48 drop=0 speed=7.06x    frame=24020 fps=212 q=-0.0 size=  332800kB time=00:13:21.23 bitrate=3402.6kbits/s dup=48 drop=0 speed=7.06x    frame=24127 fps=212 q=-0.0 size=  334336kB time=00:13:24.80 bitrate=3403.2kbits/s dup=48 drop=0 speed=7.06x    frame=24236 fps=212 q=-0.0 size=  336128kB time=00:13:28.44 bitrate=3406.0kbits/s dup=48 drop=0 speed=7.06x    frame=24344 fps=212 q=-0.0 size=  337920kB time=00:13:32.04 bitrate=3409.0kbits/s dup=48 drop=0 speed=7.06x    frame=24453 fps=212 q=-0.0 size=  339712kB time=00:13:35.68 bitrate=3411.8kbits/s dup=48 drop=0 speed=7.06x    frame=24563 fps=212 q=-0.0 size=  340992kB time=00:13:39.35 bitrate=3409.3kbits/s dup=48 drop=0 speed=7.06x    frame=24672 fps=212 q=-0.0 size=  342272kB time=00:13:42.98 bitrate=3407.0kbits/s dup=48 drop=0 speed=7.06x    frame=24781 fps=212 q=-0.0 size=  343552kB time=00:13:46.62 bitrate=3404.7kbits/s dup=48 drop=0 speed=7.06x    frame=24891 fps=212 q=-0.0 size=  344832kB time=00:13:50.29 bitrate=3402.2kbits/s dup=48 drop=0 speed=7.06x    frame=25001 fps=212 q=-0.0 size=  346112kB time=00:13:53.96 bitrate=3399.8kbits/s dup=48 drop=0 speed=7.06x    frame=25110 fps=212 q=-0.0 size=  347904kB time=00:13:57.60 bitrate=3402.6kbits/s dup=48 drop=0 speed=7.06x    frame=25221 fps=212 q=-0.0 size=  349440kB time=00:14:01.30 bitrate=3402.6kbits/s dup=48 drop=0 speed=7.07x    frame=25327 fps=212 q=-0.0 size=  351232kB time=00:14:04.84 bitrate=3405.7kbits/s dup=48 drop=0 speed=7.07x    frame=25434 fps=212 q=-0.0 size=  352512kB time=00:14:08.41 bitrate=3403.7kbits/s dup=48 drop=0 speed=7.07x    frame=25542 fps=212 q=-0.0 size=  354048kB time=00:14:12.01 bitrate=3404.1kbits/s dup=48 drop=0 speed=7.07x    frame=25649 fps=212 q=-0.0 size=  355328kB time=00:14:15.58 bitrate=3402.2kbits/s dup=48 drop=0 speed=7.07x    frame=25755 fps=212 q=-0.0 size=  356608kB time=00:14:19.12 bitrate=3400.4kbits/s dup=48 drop=0 speed=7.07x    frame=25863 fps=212 q=-0.0 size=  358144kB time=00:14:22.72 bitrate=3400.7kbits/s dup=48 drop=0 speed=7.07x    frame=25968 fps=212 q=-0.0 size=  359424kB time=00:14:26.23 bitrate=3399.1kbits/s dup=48 drop=0 speed=7.07x    frame=26071 fps=212 q=-0.0 size=  360960kB time=00:14:29.66 bitrate=3400.1kbits/s dup=48 drop=0 speed=7.07x    frame=26178 fps=212 q=-0.0 size=  362496kB time=00:14:33.23 bitrate=3400.6kbits/s dup=48 drop=0 speed=7.07x    frame=26285 fps=212 q=-0.0 size=  364288kB time=00:14:36.80 bitrate=3403.5kbits/s dup=48 drop=0 speed=7.07x    frame=26394 fps=212 q=-0.0 size=  365824kB time=00:14:40.44 bitrate=3403.8kbits/s dup=48 drop=0 speed=7.07x    frame=26495 fps=212 q=-0.0 size=  367360kB time=00:14:43.81 bitrate=3405.0kbits/s dup=48 drop=0 speed=7.07x    frame=26603 fps=212 q=-0.0 size=  368896kB time=00:14:47.41 bitrate=3405.4kbits/s dup=48 drop=0 speed=7.07x    frame=26710 fps=212 q=-0.0 size=  370944kB time=00:14:50.99 bitrate=3410.6kbits/s dup=48 drop=0 speed=7.07x    frame=26819 fps=212 q=-0.0 size=  372224kB time=00:14:54.62 bitrate=3408.4kbits/s dup=48 drop=0 speed=7.07x    frame=26927 fps=212 q=-0.0 size=  373248kB time=00:14:58.23 bitrate=3404.1kbits/s dup=48 drop=0 speed=7.07x    frame=27035 fps=212 q=-0.0 size=  374784kB time=00:15:01.83 bitrate=3404.4kbits/s dup=48 drop=0 speed=7.07x    frame=27143 fps=212 q=-0.0 size=  376320kB time=00:15:05.43 bitrate=3404.8kbits/s dup=48 drop=0 speed=7.07x    frame=27252 fps=212 q=-0.0 size=  377856kB time=00:15:09.07 bitrate=3405.0kbits/s dup=48 drop=0 speed=7.07x    frame=27361 fps=212 q=-0.0 size=  379136kB time=00:15:12.71 bitrate=3402.9kbits/s dup=48 drop=0 speed=7.07x    frame=27468 fps=212 q=-0.0 size=  380672kB time=00:15:16.28 bitrate=3403.4kbits/s dup=48 drop=0 speed=7.07x    frame=27566 fps=212 q=-0.0 size=  382208kB time=00:15:19.55 bitrate=3405.0kbits/s dup=48 drop=0 speed=7.07x    frame=27671 fps=212 q=-0.0 size=  384000kB time=00:15:23.05 bitrate=3408.0kbits/s dup=48 drop=0 speed=7.07x    frame=27779 fps=212 q=-0.0 size=  385792kB time=00:15:26.65 bitrate=3410.5kbits/s dup=48 drop=0 speed=7.07x    frame=27883 fps=212 q=-0.0 size=  386816kB time=00:15:30.12 bitrate=3406.8kbits/s dup=48 drop=0 speed=7.07x    frame=27986 fps=212 q=-0.0 size=  388352kB time=00:15:33.56 bitrate=3407.8kbits/s dup=48 drop=0 speed=7.07x    frame=28082 fps=212 q=-0.0 size=  389888kB time=00:15:36.76 bitrate=3409.6kbits/s dup=48 drop=0 speed=7.06x    frame=28179 fps=212 q=-0.0 size=  391168kB time=00:15:40.00 bitrate=3409.0kbits/s dup=48 drop=0 speed=7.06x    frame=28283 fps=212 q=-0.0 size=  392448kB time=00:15:43.47 bitrate=3407.5kbits/s dup=48 drop=0 speed=7.06x    frame=28393 fps=212 q=-0.0 size=  393728kB time=00:15:47.14 bitrate=3405.4kbits/s dup=48 drop=0 speed=7.06x    frame=28500 fps=212 q=-0.0 size=  394752kB time=00:15:50.71 bitrate=3401.4kbits/s dup=48 drop=0 speed=7.06x    frame=28611 fps=212 q=-0.0 size=  396288kB time=00:15:54.42 bitrate=3401.4kbits/s dup=48 drop=0 speed=7.06x    frame=28716 fps=212 q=-0.0 size=  397568kB time=00:15:57.92 bitrate=3399.9kbits/s dup=48 drop=0 speed=7.06x    frame=28824 fps=212 q=-0.0 size=  398848kB time=00:16:01.52 bitrate=3398.1kbits/s dup=48 drop=0 speed=7.06x    frame=28935 fps=212 q=-0.0 size=  400384kB time=00:16:05.23 bitrate=3398.1kbits/s dup=48 drop=0 speed=7.06x    frame=29043 fps=212 q=-0.0 size=  402176kB time=00:16:08.83 bitrate=3400.6kbits/s dup=48 drop=0 speed=7.06x    frame=29150 fps=212 q=-0.0 size=  404224kB time=00:16:12.40 bitrate=3405.4kbits/s dup=48 drop=0 speed=7.06x    frame=29256 fps=212 q=-0.0 size=  406016kB time=00:16:15.94 bitrate=3408.1kbits/s dup=48 drop=0 speed=7.06x    frame=29365 fps=212 q=-0.0 size=  407552kB time=00:16:19.57 bitrate=3408.3kbits/s dup=48 drop=0 speed=7.06x    frame=29475 fps=212 q=-0.0 size=  408320kB time=00:16:23.24 bitrate=3401.9kbits/s dup=48 drop=0 speed=7.07x    frame=29582 fps=212 q=-0.0 size=  409600kB time=00:16:26.81 bitrate=3400.3kbits/s dup=48 drop=0 speed=7.07x    frame=29691 fps=212 q=-0.0 size=  411136kB time=00:16:30.45 bitrate=3400.5kbits/s dup=48 drop=0 speed=7.07x    frame=29799 fps=212 q=-0.0 size=  412672kB time=00:16:34.05 bitrate=3400.8kbits/s dup=48 drop=0 speed=7.07x    frame=29909 fps=212 q=-0.0 size=  413952kB time=00:16:37.73 bitrate=3398.8kbits/s dup=48 drop=0 speed=7.07x    frame=30016 fps=212 q=-0.0 size=  415744kB time=00:16:41.30 bitrate=3401.4kbits/s dup=48 drop=0 speed=7.07x    frame=30126 fps=212 q=-0.0 size=  417280kB time=00:16:44.97 bitrate=3401.5kbits/s dup=48 drop=0 speed=7.07x    frame=30228 fps=212 q=-0.0 size=  418560kB time=00:16:48.37 bitrate=3400.4kbits/s dup=48 drop=0 speed=7.07x    frame=30316 fps=212 q=-0.0 size=  419840kB time=00:16:51.31 bitrate=3400.9kbits/s dup=48 drop=0 speed=7.06x    frame=30422 fps=212 q=-0.0 size=  421376kB time=00:16:54.84 bitrate=3401.4kbits/s dup=48 drop=0 speed=7.06x    frame=30528 fps=212 q=-0.0 size=  423168kB time=00:16:58.38 bitrate=3404.0kbits/s dup=48 drop=0 speed=7.06x    frame=30626 fps=212 q=-0.0 size=  424704kB time=00:17:01.65 bitrate=3405.4kbits/s dup=48 drop=0 speed=7.06x    frame=30732 fps=212 q=-0.0 size=  426240kB time=00:17:05.19 bitrate=3406.0kbits/s dup=48 drop=0 speed=7.06x    frame=30837 fps=212 q=-0.0 size=  427520kB time=00:17:08.69 bitrate=3404.6kbits/s dup=48 drop=0 speed=7.06x    frame=30947 fps=212 q=-0.0 size=  428800kB time=00:17:12.36 bitrate=3402.6kbits/s dup=48 drop=0 speed=7.06x    frame=31055 fps=212 q=-0.0 size=  430080kB time=00:17:15.96 bitrate=3400.9kbits/s dup=48 drop=0 speed=7.06x    frame=31164 fps=212 q=-0.0 size=  431616kB time=00:17:19.60 bitrate=3401.1kbits/s dup=48 drop=0 speed=7.06x    frame=31271 fps=212 q=-0.0 size=  433152kB time=00:17:23.17 bitrate=3401.5kbits/s dup=48 drop=0 speed=7.06x    frame=31376 fps=212 q=-0.0 size=  434432kB time=00:17:26.67 bitrate=3400.2kbits/s dup=48 drop=0 speed=7.06x    frame=31478 fps=212 q=-0.0 size=  436480kB time=00:17:30.08 bitrate=3405.1kbits/s dup=48 drop=0 speed=7.06x    frame=31585 fps=212 q=-0.0 size=  438016kB time=00:17:33.65 bitrate=3405.5kbits/s dup=48 drop=0 speed=7.06x    frame=31693 fps=212 q=-0.0 size=  439040kB time=00:17:37.25 bitrate=3401.8kbits/s dup=48 drop=0 speed=7.06x    frame=31802 fps=212 q=-0.0 size=  440576kB time=00:17:40.89 bitrate=3402.0kbits/s dup=48 drop=0 speed=7.06x    frame=31911 fps=212 q=-0.0 size=  441856kB time=00:17:44.53 bitrate=3400.3kbits/s dup=48 drop=0 speed=7.06x    frame=32020 fps=212 q=-0.0 size=  443392kB time=00:17:48.16 bitrate=3400.5kbits/s dup=48 drop=0 speed=7.06x    frame=32130 fps=212 q=-0.0 size=  444928kB time=00:17:51.83 bitrate=3400.6kbits/s dup=48 drop=0 speed=7.07x    frame=32238 fps=212 q=-0.0 size=  446464kB time=00:17:55.44 bitrate=3400.9kbits/s dup=48 drop=0 speed=7.07x    frame=32344 fps=212 q=-0.0 size=  448000kB time=00:17:58.97 bitrate=3401.4kbits/s dup=48 drop=0 speed=7.07x    frame=32447 fps=212 q=-0.0 size=  449536kB time=00:18:02.41 bitrate=3402.2kbits/s dup=48 drop=0 speed=7.06x    frame=32549 fps=212 q=-0.0 size=  451072kB time=00:18:05.81 bitrate=3403.1kbits/s dup=48 drop=0 speed=7.06x    frame=32657 fps=212 q=-0.0 size=  452608kB time=00:18:09.42 bitrate=3403.4kbits/s dup=48 drop=0 speed=7.06x    frame=32762 fps=212 q=-0.0 size=  453888kB time=00:18:12.92 bitrate=3402.1kbits/s dup=48 drop=0 speed=7.06x    frame=32863 fps=212 q=-0.0 size=  455168kB time=00:18:16.29 bitrate=3401.2kbits/s dup=48 drop=0 speed=7.06x    frame=32971 fps=212 q=-0.0 size=  456960kB time=00:18:19.89 bitrate=3403.4kbits/s dup=48 drop=0 speed=7.06x    frame=33077 fps=212 q=-0.0 size=  458240kB time=00:18:23.43 bitrate=3402.0kbits/s dup=48 drop=0 speed=7.06x    frame=33179 fps=212 q=-0.0 size=  459776kB time=00:18:26.83 bitrate=3402.9kbits/s dup=48 drop=0 speed=7.06x    frame=33284 fps=212 q=-0.0 size=  461312kB time=00:18:30.34 bitrate=3403.5kbits/s dup=48 drop=0 speed=7.06x    frame=33389 fps=212 q=-0.0 size=  462592kB time=00:18:33.84 bitrate=3402.2kbits/s dup=48 drop=0 speed=7.06x    frame=33488 fps=212 q=-0.0 size=  463872kB time=00:18:37.14 bitrate=3401.6kbits/s dup=48 drop=0 speed=7.06x    frame=33595 fps=212 q=-0.0 size=  465408kB time=00:18:40.71 bitrate=3401.9kbits/s dup=48 drop=0 speed=7.06x    frame=33701 fps=212 q=-0.0 size=  466688kB time=00:18:44.25 bitrate=3400.6kbits/s dup=48 drop=0 speed=7.06x    frame=33791 fps=212 q=-0.0 size=  467712kB time=00:18:47.25 bitrate=3398.9kbits/s dup=48 drop=0 speed=7.06x    frame=33898 fps=212 q=-0.0 size=  469248kB time=00:18:50.82 bitrate=3399.3kbits/s dup=48 drop=0 speed=7.06x    frame=34007 fps=212 q=-0.0 size=  470784kB time=00:18:54.46 bitrate=3399.5kbits/s dup=48 drop=0 speed=7.06x    frame=34113 fps=212 q=-0.0 size=  472832kB time=00:18:58.00 bitrate=3403.7kbits/s dup=48 drop=0 speed=7.06x    frame=34217 fps=212 q=-0.0 size=  474624kB time=00:19:01.47 bitrate=3406.2kbits/s dup=48 drop=0 speed=7.06x    frame=34326 fps=212 q=-0.0 size=  476160kB time=00:19:05.11 bitrate=3406.4kbits/s dup=48 drop=0 speed=7.06x    frame=34434 fps=212 q=-0.0 size=  477184kB time=00:19:08.71 bitrate=3403.0kbits/s dup=48 drop=0 speed=7.06x    frame=34537 fps=212 q=-0.0 size=  478208kB time=00:19:12.15 bitrate=3400.1kbits/s dup=48 drop=0 speed=7.06x    frame=34643 fps=212 q=-0.0 size=  480000kB time=00:19:15.68 bitrate=3402.4kbits/s dup=48 drop=0 speed=7.06x    frame=34748 fps=212 q=-0.0 size=  481280kB time=00:19:19.19 bitrate=3401.2kbits/s dup=48 drop=0 speed=7.06x    frame=34848 fps=211 q=-0.0 size=  482816kB time=00:19:22.52 bitrate=3402.3kbits/s dup=48 drop=0 speed=7.06x    frame=34933 fps=211 q=-0.0 size=  483840kB time=00:19:25.36 bitrate=3401.2kbits/s dup=48 drop=0 speed=7.05x    frame=35027 fps=211 q=-0.0 size=  485120kB time=00:19:28.50 bitrate=3401.0kbits/s dup=48 drop=0 speed=7.05x    frame=35134 fps=211 q=-0.0 size=  487168kB time=00:19:32.07 bitrate=3405.0kbits/s dup=48 drop=0 speed=7.05x    frame=35239 fps=211 q=-0.0 size=  488960kB time=00:19:35.57 bitrate=3407.3kbits/s dup=48 drop=0 speed=7.05x    frame=35335 fps=211 q=-0.0 size=  489728kB time=00:19:38.77 bitrate=3403.4kbits/s dup=48 drop=0 speed=7.05x    frame=35446 fps=211 q=-0.0 size=  491264kB time=00:19:42.48 bitrate=3403.4kbits/s dup=48 drop=0 speed=7.05x    frame=35556 fps=211 q=-0.0 size=  492800kB time=00:19:46.15 bitrate=3403.5kbits/s dup=48 drop=0 speed=7.05x    frame=35666 fps=211 q=-0.0 size=  494080kB time=00:19:49.82 bitrate=3401.8kbits/s dup=48 drop=0 speed=7.05x    frame=35775 fps=211 q=-0.0 size=  495360kB time=00:19:53.45 bitrate=3400.2kbits/s dup=48 drop=0 speed=7.05x    frame=35882 fps=211 q=-0.0 size=  496896kB time=00:19:57.02 bitrate=3400.6kbits/s dup=48 drop=0 speed=7.05x    frame=35991 fps=211 q=-0.0 size=  498176kB time=00:20:00.66 bitrate=3399.0kbits/s dup=48 drop=0 speed=7.05x    frame=36092 fps=211 q=-0.0 size=  499968kB time=00:20:04.03 bitrate=3401.7kbits/s dup=48 drop=0 speed=7.05x    frame=36199 fps=211 q=-0.0 size=  501504kB time=00:20:07.60 bitrate=3402.0kbits/s dup=48 drop=0 speed=7.05x    frame=36306 fps=211 q=-0.0 size=  503296kB time=00:20:11.17 bitrate=3404.1kbits/s dup=48 drop=0 speed=7.05x    frame=36412 fps=211 q=-0.0 size=  505344kB time=00:20:14.71 bitrate=3408.0kbits/s dup=48 drop=0 speed=7.05x    frame=36506 fps=211 q=-0.0 size=  506368kB time=00:20:17.85 bitrate=3406.1kbits/s dup=48 drop=0 speed=7.05x    frame=36609 fps=211 q=-0.0 size=  507392kB time=00:20:21.28 bitrate=3403.4kbits/s dup=48 drop=0 speed=7.05x    frame=36717 fps=211 q=-0.0 size=  508672kB time=00:20:24.89 bitrate=3402.0kbits/s dup=48 drop=0 speed=7.05x    frame=36824 fps=211 q=-0.0 size=  510208kB time=00:20:28.46 bitrate=3402.3kbits/s dup=48 drop=0 speed=7.05x    frame=36933 fps=211 q=-0.0 size=  511744kB time=00:20:32.09 bitrate=3402.5kbits/s dup=48 drop=0 speed=7.05x    frame=37037 fps=211 q=-0.0 size=  513280kB time=00:20:35.56 bitrate=3403.1kbits/s dup=48 drop=0 speed=7.05x    frame=37142 fps=211 q=-0.0 size=  515072kB time=00:20:39.07 bitrate=3405.3kbits/s dup=48 drop=0 speed=7.05x    frame=37245 fps=211 q=-0.0 size=  516864kB time=00:20:42.50 bitrate=3407.7kbits/s dup=48 drop=0 speed=7.05x    frame=37351 fps=211 q=-0.0 size=  518400kB time=00:20:46.04 bitrate=3408.2kbits/s dup=48 drop=0 speed=7.05x    frame=37457 fps=211 q=-0.0 size=  519936kB time=00:20:49.58 bitrate=3408.6kbits/s dup=48 drop=0 speed=7.05x    frame=37562 fps=211 q=-0.0 size=  521472kB time=00:20:53.08 bitrate=3409.1kbits/s dup=48 drop=0 speed=7.05x    frame=37667 fps=211 q=-0.0 size=  522752kB time=00:20:56.58 bitrate=3407.9kbits/s dup=48 drop=0 speed=7.05x    frame=37776 fps=211 q=-0.0 size=  523776kB time=00:21:00.22 bitrate=3404.8kbits/s dup=48 drop=0 speed=7.05x    frame=37882 fps=211 q=-0.0 size=  525568kB time=00:21:03.76 bitrate=3406.9kbits/s dup=48 drop=0 speed=7.05x    frame=37984 fps=211 q=-0.0 size=  527104kB time=00:21:07.16 bitrate=3407.6kbits/s dup=48 drop=0 speed=7.05x    frame=38087 fps=211 q=-0.0 size=  528640kB time=00:21:10.60 bitrate=3408.3kbits/s dup=48 drop=0 speed=7.05x    frame=38195 fps=211 q=-0.0 size=  529920kB time=00:21:14.20 bitrate=3406.9kbits/s dup=48 drop=0 speed=7.05x    frame=38304 fps=211 q=-0.0 size=  530944kB time=00:21:17.84 bitrate=3403.8kbits/s dup=48 drop=0 speed=7.05x    frame=38414 fps=211 q=-0.0 size=  532224kB time=00:21:21.51 bitrate=3402.2kbits/s dup=48 drop=0 speed=7.05x    frame=38523 fps=211 q=-0.0 size=  533504kB time=00:21:25.15 bitrate=3400.7kbits/s dup=48 drop=0 speed=7.05x    frame=38629 fps=211 q=-0.0 size=  535296kB time=00:21:28.68 bitrate=3402.8kbits/s dup=48 drop=0 speed=7.05x    frame=38733 fps=211 q=-0.0 size=  536832kB time=00:21:32.15 bitrate=3403.4kbits/s dup=48 drop=0 speed=7.05x    frame=38843 fps=211 q=-0.0 size=  538112kB time=00:21:35.82 bitrate=3401.9kbits/s dup=48 drop=0 speed=7.05x    frame=38952 fps=211 q=-0.0 size=  539648kB time=00:21:39.46 bitrate=3402.0kbits/s dup=48 drop=0 speed=7.05x    frame=39054 fps=211 q=-0.0 size=  541184kB time=00:21:42.86 bitrate=3402.8kbits/s dup=48 drop=0 speed=7.05x    frame=39161 fps=211 q=-0.0 size=  542464kB time=00:21:46.43 bitrate=3401.5kbits/s dup=48 drop=0 speed=7.05x    frame=39265 fps=211 q=-0.0 size=  544000kB time=00:21:49.90 bitrate=3402.1kbits/s dup=48 drop=0 speed=7.05x    frame=39357 fps=211 q=-0.0 size=  545024kB time=00:21:52.97 bitrate=3400.5kbits/s dup=48 drop=0 speed=7.04x    frame=39450 fps=211 q=-0.0 size=  546304kB time=00:21:56.08 bitrate=3400.5kbits/s dup=48 drop=0 speed=7.04x    frame=39520 fps=211 q=-0.0 size=  547072kB time=00:21:58.41 bitrate=3399.2kbits/s dup=48 drop=0 speed=7.04x    frame=39598 fps=211 q=-0.0 size=  548096kB time=00:22:01.01 bitrate=3398.9kbits/s dup=48 drop=0 speed=7.03x    frame=39674 fps=211 q=-0.0 size=  549376kB time=00:22:03.55 bitrate=3400.3kbits/s dup=48 drop=0 speed=7.03x    frame=39748 fps=210 q=-0.0 size=  550400kB time=00:22:06.02 bitrate=3400.3kbits/s dup=48 drop=0 speed=7.02x    frame=39821 fps=210 q=-0.0 size=  551424kB time=00:22:08.46 bitrate=3400.4kbits/s dup=48 drop=0 speed=7.01x    frame=39880 fps=210 q=-0.0 size=  552448kB time=00:22:10.42 bitrate=3401.7kbits/s dup=48 drop=0 speed=7.01x    frame=39947 fps=210 q=-0.0 size=  553472kB time=00:22:12.66 bitrate=3402.2kbits/s dup=48 drop=0 speed=   7x    frame=40024 fps=210 q=-0.0 size=  554496kB time=00:22:15.23 bitrate=3402.0kbits/s dup=48 drop=0 speed=6.99x    frame=40103 fps=210 q=-0.0 size=  555264kB time=00:22:17.86 bitrate=3400.0kbits/s dup=48 drop=0 speed=6.99x    frame=40178 fps=209 q=-0.0 size=  556544kB time=00:22:20.37 bitrate=3401.4kbits/s dup=48 drop=0 speed=6.98x    frame=40256 fps=209 q=-0.0 size=  557568kB time=00:22:22.97 bitrate=3401.1kbits/s dup=48 drop=0 speed=6.98x    frame=40330 fps=209 q=-0.0 size=  559104kB time=00:22:25.44 bitrate=3404.2kbits/s dup=48 drop=0 speed=6.97x    frame=40401 fps=209 q=-0.0 size=  560384kB time=00:22:27.81 bitrate=3406.0kbits/s dup=48 drop=0 speed=6.97x    frame=40474 fps=209 q=-0.0 size=  561664kB time=00:22:30.24 bitrate=3407.6kbits/s dup=48 drop=0 speed=6.96x    frame=40546 fps=209 q=-0.0 size=  562688kB time=00:22:32.65 bitrate=3407.8kbits/s dup=48 drop=0 speed=6.96x    frame=40612 fps=208 q=-0.0 size=  563456kB time=00:22:34.85 bitrate=3406.9kbits/s dup=48 drop=0 speed=6.95x    frame=40657 fps=208 q=-0.0 size=  563712kB time=00:22:36.35 bitrate=3404.7kbits/s dup=48 drop=0 speed=6.94x    frame=40733 fps=208 q=-0.0 size=  564480kB time=00:22:38.89 bitrate=3402.9kbits/s dup=48 drop=0 speed=6.94x    frame=40828 fps=208 q=-0.0 size=  565504kB time=00:22:42.06 bitrate=3401.2kbits/s dup=48 drop=0 speed=6.93x    frame=40934 fps=208 q=-0.0 size=  566784kB time=00:22:45.59 bitrate=3400.0kbits/s dup=48 drop=0 speed=6.93x    frame=41003 fps=208 q=-0.0 size=  567808kB time=00:22:47.89 bitrate=3400.5kbits/s dup=48 drop=0 speed=6.93x    frame=41100 fps=208 q=-0.0 size=  569600kB time=00:22:51.13 bitrate=3403.1kbits/s dup=48 drop=0 speed=6.93x    frame=41203 fps=208 q=-0.0 size=  571392kB time=00:22:54.57 bitrate=3405.3kbits/s dup=48 drop=0 speed=6.93x    frame=41300 fps=208 q=-0.0 size=  573184kB time=00:22:57.80 bitrate=3408.0kbits/s dup=48 drop=0 speed=6.92x    frame=41384 fps=207 q=-0.0 size=  574208kB time=00:23:00.61 bitrate=3407.1kbits/s dup=48 drop=0 speed=6.92x    frame=41484 fps=207 q=-0.0 size=  576000kB time=00:23:03.94 bitrate=3409.5kbits/s dup=48 drop=0 speed=6.92x    frame=41582 fps=207 q=-0.0 size=  577280kB time=00:23:07.21 bitrate=3409.0kbits/s dup=48 drop=0 speed=6.92x    frame=41684 fps=207 q=-0.0 size=  578560kB time=00:23:10.62 bitrate=3408.2kbits/s dup=48 drop=0 speed=6.92x    frame=41789 fps=207 q=-0.0 size=  579840kB time=00:23:14.12 bitrate=3407.2kbits/s dup=48 drop=0 speed=6.92x    frame=41894 fps=207 q=-0.0 size=  581376kB time=00:23:17.62 bitrate=3407.7kbits/s dup=48 drop=0 speed=6.92x    frame=41913 fps=207 q=-0.0 Lsize=  582517kB time=00:23:18.46 bitrate=3412.3kbits/s dup=48 drop=0 speed=6.92x    
video:516435kB audio:65534kB subtitle:0kB other streams:0kB global headers:0kB muxing overhead: 0.094186%
Exiting normally, received signal 15.
